<svg xmlns="http://www.w3.org/2000/svg" xmlns:xlink="http://www.w3.org/1999/xlink" width="500" zoomAndPan="magnify" viewBox="0 0 375 374.999991" height="500" preserveAspectRatio="xMidYMid meet" version="1.0"><defs><clipPath id="0b104325d3"><path d="M 8.414062 46 L 208 46 L 208 244 L 8.414062 244 Z M 8.414062 46 " clip-rule="nonzero"/></clipPath><clipPath id="7dfca8e807"><path d="M 51 238 L 157 238 L 157 329.359375 L 51 329.359375 Z M 51 238 " clip-rule="nonzero"/></clipPath><clipPath id="3694128ef6"><path d="M 167 65 L 366.914062 65 L 366.914062 283 L 167 283 Z M 167 65 " clip-rule="nonzero"/></clipPath></defs><g clip-path="url(#0b104325d3)"><path fill="#5e17eb" d="M 201.515625 180.101562 C 186.976562 198.9375 160.269531 207.359375 154.859375 233.464844 C 154.070312 233.695312 153.285156 233.90625 152.5 234.117188 C 144.363281 236.859375 135.730469 237.148438 127.613281 235.136719 C 123.335938 234.078125 119.210938 232.371094 115.355469 230.050781 C 113.609375 225.5625 110.097656 222.050781 104.84375 219.539062 C 56.265625 260.207031 7.898438 246.835938 8.433594 202.046875 C 8.683594 180.101562 24.839844 170.277344 42.910156 159.730469 C 53.042969 153.820312 46 142.808594 38.152344 147.261719 C 28.90625 152.496094 20.003906 158.597656 12.078125 165.734375 C 11.867188 164.640625 11.675781 163.527344 11.503906 162.394531 C 10.929688 158.769531 10.527344 155.046875 10.316406 151.191406 C 10.277344 139.511719 13.960938 128 21 118.429688 C 29.691406 106.613281 42.699219 98.765625 57.128906 96.601562 C 61.519531 86.722656 74.335938 77.246094 95.574219 68.152344 C 108.046875 61.996094 122.570312 61.4375 135.441406 66.636719 C 175.730469 116.394531 136.84375 127.578125 97.476562 144.804688 C 79.210938 152.785156 61.980469 164.027344 55.765625 189.632812 C 52.773438 201.988281 66.085938 203.386719 68.445312 193.203125 C 72.765625 174.613281 84.0625 165.042969 102.75 156.871094 C 122.78125 148.125 153.382812 137.976562 162.6875 116.492188 C 171.664062 95.753906 158.445312 74.097656 145.707031 58.351562 L 144.421875 56.777344 C 154.742188 47.722656 168.84375 44.117188 182.3125 47.222656 C 192.097656 49.46875 200.636719 55.03125 206.621094 62.742188 C 191.15625 75.710938 177.09375 91.613281 181.179688 113.441406 C 183.386719 125.238281 190.3125 134.792969 197.066406 144.382812 C 200.710938 149.5625 205.566406 156.332031 206.984375 162.566406 C 208.519531 169.261719 205.566406 174.921875 201.535156 180.121094 Z M 201.515625 180.101562 " fill-opacity="1" fill-rule="evenodd"/></g><g clip-path="url(#7dfca8e807)"><path fill="#5e17eb" d="M 101.175781 238.164062 C 117.945312 247.390625 137.535156 250.097656 156.164062 245.742188 C 157.640625 252.746094 151.117188 256.253906 142.984375 260.761719 C 114.703125 276.414062 131.722656 272.597656 115.585938 298.53125 C 101.582031 320.515625 60.5625 330.394531 52.636719 328.976562 C 46.097656 327.785156 71.421875 319.902344 71.132812 295.597656 C 70.902344 273.691406 70.039062 268.953125 57.855469 257.65625 C 74.414062 257.617188 90.164062 250.539062 101.175781 238.164062 Z M 101.175781 238.164062 " fill-opacity="1" fill-rule="evenodd"/></g><g clip-path="url(#3694128ef6)"><path fill="#ffbd59" d="M 179.300781 261.511719 C 160.519531 245.742188 163.816406 228.25 189.179688 209.066406 C 271.179688 149.621094 161.746094 131.589844 203.550781 83.726562 C 209.421875 77.015625 216.308594 71.085938 224.730469 67.902344 C 235.398438 63.875 247.429688 64.144531 258.113281 69.074219 C 272.945312 75.902344 282.671875 90.5 283.226562 106.824219 C 296.042969 101.855469 310.605469 104.847656 320.449219 114.457031 C 330.269531 124.070312 333.589844 138.550781 328.910156 151.480469 C 342.300781 152.898438 354.234375 160.59375 361.0625 172.199219 C 367.453125 183.054688 368.679688 196.15625 364.480469 207.953125 L 364.421875 207.933594 C 363.980469 209.085938 363.460938 210.234375 362.90625 211.347656 C 356.785156 206.113281 348.707031 202.46875 339.269531 200.375 L 337.410156 199.953125 L 336.984375 198.4375 L 336.96875 198.402344 L 336.949219 198.363281 C 327.546875 166.15625 307.5 151.578125 280.832031 152.9375 C 275.9375 153.359375 269.433594 154.53125 261.320312 156.410156 C 259.246094 157.003906 257.15625 157.695312 255.046875 158.445312 C 252.972656 159.191406 250.882812 159.996094 248.753906 160.878906 C 238.832031 165.003906 243.996094 177.164062 253.816406 173.042969 C 258 171.296875 261.988281 169.875 265.808594 168.765625 C 268.339844 168.035156 270.816406 167.441406 273.195312 166.980469 C 301.167969 161.703125 318.796875 175.785156 326.128906 209.199219 C 340.6875 213.976562 356.574219 215.222656 361.90625 230.953125 C 363.691406 236.210938 363.863281 242.019531 362.175781 247.601562 C 358.859375 258.613281 348.996094 266.363281 337.503906 266.976562 C 334.183594 274.746094 327.222656 280.367188 318.914062 281.941406 C 313.15625 283.050781 307.269531 282.113281 302.222656 279.425781 C 298.386719 276.089844 294.203125 273.652344 289.675781 272.117188 C 282.578125 278.46875 272.964844 281.382812 263.429688 279.886719 C 254.605469 278.507812 246.832031 273.539062 241.921875 266.285156 C 252.015625 250.210938 256.484375 238.339844 260.28125 219.867188 C 262.21875 210.445312 249.519531 206.515625 247.390625 217.179688 C 244.148438 233.523438 239.160156 252.917969 224.730469 262.429688 C 214.101562 269.453125 200.460938 271.140625 188.105469 266.269531 C 184.921875 265.019531 181.988281 263.410156 179.300781 261.472656 Z M 179.300781 261.511719 " fill-opacity="1" fill-rule="evenodd"/></g></svg>